<?xml version="1.0" encoding="UTF-8"?>
<!DOCTYPE svg PUBLIC "-//W3C//DTD SVG 1.0//EN" "http://www.w3.org/TR/2001/REC-SVG-20010904/DTD/svg10.dtd">
<!-- Creator: CorelDRAW -->
<svg xmlns="http://www.w3.org/2000/svg" xml:space="preserve" width="146.387mm" height="18.769mm" version="1.0" style="shape-rendering:geometricPrecision; text-rendering:geometricPrecision; image-rendering:optimizeQuality; fill-rule:evenodd; clip-rule:evenodd"
viewBox="0 0 2765.6 354.59"
 xmlns:xlink="http://www.w3.org/1999/xlink"
 xmlns:xodm="http://www.corel.com/coreldraw/odm/2003">
 <defs>
  <style type="text/css">
   <![CDATA[
    .str0 {stroke:red;stroke-width:6.24;stroke-miterlimit:22.9256}
    .fil5 {fill:none}
    .fil4 {fill:none;fill-rule:nonzero}
    .fil1 {fill:#332C2B}
    .fil3 {fill:#F6F7F9}
    .fil0 {fill:#7789A4}
    .fil2 {fill:#332C2B;fill-rule:nonzero}
   ]]>
  </style>
 </defs>
 <g id="圖層_x0020_1">
  <metadata id="CorelCorpID_0Corel-Layer"/>
  <g>
   <path class="fil0" style=fill:currentColor d="M2541.32 345.65c53.93,5.79 115.54,15.11 167.7,3.09 26.13,-6.02 45.09,-10.07 51.31,-38.42 6.86,-31.3 6.53,-67.76 1.8,-105 -7.61,-59.78 -26.58,-121.55 -45.42,-167.17l-9.24 -15.94c-15.1,-16.45 -128.16,-28.99 -166.15,-15.94l0 339.38z"/>
   <path id="_1" class="fil1" d="M2543.21 343.96c5.8,0.63 11.53,1.28 17.31,1.93 48.91,5.53 102.27,11.57 148.08,1.02l0.9 -0.21c24.99,-5.75 43.1,-9.92 48.98,-36.77 3.27,-14.91 4.9,-31 5.18,-47.76 0.31,-18.24 -0.95,-37.32 -3.41,-56.61 -3.51,-27.62 -9.48,-55.72 -16.75,-82.47 -8.37,-30.82 -18.46,-59.78 -28.49,-84.1l-9.06 -15.64c-7.67,-8.05 -40.57,-15.19 -75.95,-18.58 -33.1,-3.18 -68.2,-2.99 -86.8,2.86l0 336.32zm-1.89 1.69c53.93,5.79 115.54,15.11 167.7,3.09 26.13,-6.02 45.09,-10.07 51.31,-38.42 6.86,-31.3 6.53,-67.76 1.8,-105 -7.61,-59.78 -26.58,-121.55 -45.42,-167.17l-9.24 -15.94c-15.1,-16.45 -128.16,-28.99 -166.15,-15.94l0 339.38z"/>
  </g>
  <g>
   <path class="fil1" d="M-0 237.64l0 -117.38 2338.5 0 0 117.38 -2338.5 0zm1.89 -115.49l0 113.6 2334.72 0 0 -113.6 -2334.72 0z"/>
  </g>
  <g>
   <path class="fil1" d="M2338.5 237.64l0 -117.38 202.82 -120.26 0 350.06 -202.82 -112.42zm1.89 -116.31l0 115.2 199.04 110.32 0 -343.54 -199.04 118.02z"/>
  </g>
  <g>
   <path class="fil1" d="M2716.71 38.15c30.57,74.04 61.5,190.62 43.62,272.17 -6.22,28.35 -25.18,32.4 -51.31,38.42 -55.4,12.76 -121.45,1.47 -177.64,-4.12 -1.55,-27.02 -4.9,-319.53 -2.17,-329.06 7.62,-26.61 160.53,-12.68 178.26,6.64l9.24 15.94zm41.16 150.81c-8.69,-54.22 -25.82,-108.7 -42.85,-149.97l-9.07 -15.65c-2.98,-3.11 -10.02,-6.14 -19.65,-8.9 -21.58,-6.18 -55.54,-10.68 -86.37,-11.56 -30.56,-0.87 -57.9,1.76 -66.61,9.75 -1.16,1.06 -1.94,2.21 -2.3,3.44 -1.1,3.84 -1.15,57.91 -0.74,121.22 0.56,84.55 1.99,185.46 2.89,205.61 9.03,0.91 18.1,1.94 27.32,2.98 48.91,5.53 102.27,11.57 148.1,1.02l0.9 -0.21c24.99,-5.75 43.1,-9.92 48.99,-36.77 7.83,-35.72 6.23,-78.25 -0.62,-120.96z"/>
  </g>
  <g>
   <polygon class="fil2" points="2601.26,322.04 2755.67,322.04 2755.67,323.92 2601.26,323.92 "/>
  </g>
  <g>
   <polygon class="fil2" points="2587.42,264.62 2765.42,264.62 2765.42,266.51 2587.42,266.51 "/>
  </g>
  <g>
   <polygon class="fil2" points="2588.23,204.38 2765.42,204.38 2765.42,206.27 2588.23,206.27 "/>
  </g>
  <g>
   <polygon class="fil2" points="2579.27,128.38 2742.94,128.38 2742.94,130.27 2579.27,130.27 "/>
  </g>
  <g>
   <polygon class="fil2" points="2569.5,65.1 2725.03,65.1 2725.03,66.99 2569.5,66.99 "/>
  </g>
  <g>
   <polygon class="fil0" points="-0,237.64 2338.5,237.64 2338.5,120.26 -0,120.26 "/>
   <path id="_1_0" class="fil1" d="M1.89 235.75l2334.72 0 0 -113.6 -2334.72 0 0 113.6zm-1.89 1.89l2338.5 0 0 -117.38 -2338.5 0 0 117.38z"/>
  </g>
  <g>
   <path class="fil4" d="M2338.5 120.26l0 117.38 192.87 106.9c-1.52,-27.49 -4.35,-319.32 -2.17,-328.98 0.91,-4.01 5.48,-7.02 12.11,-9.3l0 -6.27 -202.82 120.26z"/>
   <path id="_1_1" class="fil1" d="M2340.39 121.33l0 115.2 188.96 104.73c-0.84,-23.04 -2,-115.16 -2.53,-195.63 -0.44,-67.06 -0.44,-126.09 0.55,-130.48 0.56,-2.48 2.18,-4.6 4.63,-6.41 1.97,-1.45 4.49,-2.71 7.43,-3.8l0 -1.63 -199.04 118.02zm-1.89 -1.07l0 117.38 192.87 106.9c-1.52,-27.49 -4.35,-319.32 -2.17,-328.98 0.91,-4.01 5.48,-7.02 12.11,-9.3l0 -6.27 -202.82 120.26z"/>
  </g>
  <g>
   <polygon class="fil4" points="2338.5,237.64 2338.5,120.26 -0,120.26 -0,237.64 "/>
   <path id="_1_2" class="fil1" d="M2336.61 235.75l0 -113.6 -2334.72 0 0 113.6 2334.72 0zm1.89 1.89l0 -117.38 -2338.5 0 0 117.38 2338.5 0z"/>
  </g>
  <g id="_2751182968016">
   <path style=fill:currentcolor class="fil4 str0" d="M2257.68 170.35c2.16,2.1 -2.27,3.33 -4.71,5.84 -0.24,0.26 -2.93,-0.02 -3.39,-0.05 -0.63,0.91 -1.2,1.82 -1.69,2.76 -0.48,0.9 -4.71,0.04 -5.3,0.08 -20.68,-2.79 -48.5,-8.19 -69.12,-7.8 -2.23,-0.06 -6.3,-0.18 -8.2,0.73 -0.75,0.33 -2.34,1.3 -3.14,1.72 -26.34,18.04 -71.87,21.05 -108.96,22.23 28.82,-1.27 73.55,-6.75 94.67,-20.38 -25.13,11.15 -55.94,13.77 -86.12,15.06 28.52,-1.48 69.91,-6.64 88.77,-21.61 -14.86,6.51 -27.76,9.13 -45.47,11.07 21.74,-3.72 31.34,-6.42 46.45,-16.41 3.23,-1.59 5.58,-2.58 9.53,-3.41 5.33,-1.09 9.89,-1.1 15.44,-0.84 15.85,0.09 32.5,2.84 47.69,5.45 8.36,1.22 16.55,2.57 24.82,4 2.63,0.33 6.36,0.86 8.74,1.56zm11.08 -9.48c-4.88,-1.86 -7.83,-2.22 -12.84,-3.28 -23.75,-4.88 -51.07,-10.54 -76.14,-11.64 -8.58,-0.54 -15.27,-0.52 -23.67,0.84 -6.83,1.2 -11.27,2.65 -16.96,5.23 -28.9,16.69 -55.48,16.28 -95.43,17.55 36.22,0.03 69.65,-0.19 99.54,-13.69 4.99,-2.06 8.77,-3.25 14.64,-4.17 7.31,-1 13.13,-0.85 20.49,-0.23 24.1,2.26 49.99,8.2 73.26,12.94 1.35,0.25 12.41,2.69 12.69,2.59 2.12,-2.61 8.37,-3.38 4.41,-6.14z"/>
  </g>
  <path style=fill:currentcolor d="M2043.73 177.72c159.39,0 59.03,-37.94 201.89,-3.61 5.47,1.31 5.42,1.03 8.71,2.55"/>
 </g>
</svg>
