<?xml version="1.0" encoding="UTF-8"?>
<!DOCTYPE svg PUBLIC "-//W3C//DTD SVG 1.0//EN" "http://www.w3.org/TR/2001/REC-SVG-20010904/DTD/svg10.dtd">
<!-- Creator: CorelDRAW -->
<svg xmlns="http://www.w3.org/2000/svg" xml:space="preserve" width="139.579mm" height="41.6316mm" version="1.0" style="shape-rendering:geometricPrecision; text-rendering:geometricPrecision; image-rendering:optimizeQuality; fill-rule:evenodd; clip-rule:evenodd"
viewBox="0 0 2018.21 601.96"
 xmlns:xlink="http://www.w3.org/1999/xlink"
 xmlns:xodm="http://www.corel.com/coreldraw/odm/2003">
 <defs>
  <style type="text/css">
   <![CDATA[
    .fil2 {fill:#FEFEFE}
    .fil1 {fill:#332C2B}
    .fil4 {fill:#F0D8D4}
    .fil5 {fill:#332C2B;fill-opacity:0.890196}
    .fil0 {fill:url(#id1)}
    .fil3 {fill:url(#id2)}
   ]]>
  </style>
    <clipPath id="id0">
     <path d="M1474.05 196.72l-176.88 0 0 208.52 176.88 0 46.36 0 0 -208.52 -46.36 0z"/>
    </clipPath>
  <linearGradient id="id1" gradientUnits="userSpaceOnUse" x1="1474.05" y1="300.98" x2="2018.21" y2="300.98">
   <stop offset="0" style="stop-opacity:1; stop-color:#FEFEFE"/>
   <stop offset="0.819608" style="stop-opacity:1; stop-color:#E1B9B3"/>
   <stop offset="1" style="stop-opacity:1; stop-color:#C47468"/>
  </linearGradient>
  <linearGradient id="id2" gradientUnits="userSpaceOnUse" x1="1241.43" y1="300.98" x2="1860.61" y2="300.98">
   <stop offset="0" style="stop-opacity:1; stop-color:#F3AAA0"/>
   <stop offset="0.811765" style="stop-opacity:1; stop-color:#F4C3BB"/>
   <stop offset="1" style="stop-opacity:1; stop-color:#F6DCD7"/>
  </linearGradient>
 </defs>
 <g id="圖層_x0020_1">
  <metadata id="CorelCorpID_0Corel-Layer"/>
  <g>
   <path class="fil0" d="M1643.54 0l205.18 0c93.22,0 169.49,76.27 169.49,169.49l0 262.98c0,93.22 -76.27,169.49 -169.49,169.49l-205.18 0c-93.22,0 -169.49,-76.27 -169.49,-169.49l0 -262.98c0,-93.22 76.27,-169.49 169.49,-169.49z"/>
   <path id="_1" class="fil1" d="M1643.54 0l205.18 0c93.22,0 169.49,76.27 169.49,169.49l0 262.98c0,93.22 -76.27,169.49 -169.49,169.49l-205.18 0c-93.22,0 -169.49,-76.27 -169.49,-169.49l0 -262.98c0,-93.22 76.27,-169.49 169.49,-169.49zm205.18 1.45l-205.18 0c-46.21,0 -88.22,18.91 -118.68,49.36 -30.46,30.46 -49.36,72.47 -49.36,118.68l0 262.98c0,46.21 18.91,88.22 49.36,118.68 30.46,30.46 72.47,49.36 118.68,49.36l205.18 0c46.21,0 88.22,-18.91 118.68,-49.36 30.46,-30.46 49.36,-72.47 49.36,-118.68l0 -262.98c0,-46.21 -18.91,-88.22 -49.36,-118.68 -30.46,-30.46 -72.47,-49.36 -118.68,-49.36z"/>
  </g>
  <g>
   <path class="fil2" d="M1587.63 0l197.48 0c62.47,0 113.58,51.11 113.58,113.57l0 374.81c0,62.47 -51.11,113.57 -113.58,113.57l-197.48 0c-62.47,0 -113.58,-51.11 -113.58,-113.57l0 -374.81c0,-62.47 51.11,-113.57 113.58,-113.57z"/>
   <path id="_1_0" class="fil1" d="M1587.63 0l197.48 0c62.47,0 113.58,51.11 113.58,113.57l0 374.81c0,62.47 -51.11,113.57 -113.58,113.57l-197.48 0c-62.47,0 -113.58,-51.11 -113.58,-113.57l0 -374.81c0,-62.47 51.11,-113.57 113.58,-113.57zm197.48 1.45l-197.48 0c-30.83,0 -58.87,12.62 -79.19,32.94 -20.32,20.32 -32.94,48.36 -32.94,79.19l0 374.81c0,30.83 12.62,58.87 32.94,79.19 20.32,20.32 48.36,32.94 79.19,32.94l197.48 0c30.83,0 58.87,-12.62 79.19,-32.94 20.32,-20.32 32.94,-48.35 32.94,-79.19l0 -374.81c0,-30.83 -12.62,-58.87 -32.94,-79.19 -20.32,-20.32 -48.36,-32.94 -79.19,-32.94z"/>
  </g>
  <g>
   <path class="fil3" d="M1402.44 0l297.16 0c88.55,0 161.01,72.45 161.01,161.01l0 279.95c0,88.55 -72.46,161.01 -161.01,161.01l-297.16 0c-88.55,0 -161.01,-72.45 -161.01,-161.01l0 -279.95c0,-88.55 72.46,-161.01 161.01,-161.01z"/>
   <path id="_1_1" class="fil1" d="M1402.44 0l297.16 0c88.55,0 161.01,72.45 161.01,161.01l0 279.95c0,88.55 -72.46,161.01 -161.01,161.01l-297.16 0c-88.55,0 -161.01,-72.45 -161.01,-161.01l0 -279.95c0,-88.55 72.46,-161.01 161.01,-161.01zm297.16 1.45l-297.16 0c-43.88,0 -83.77,17.95 -112.69,46.87 -28.92,28.92 -46.87,68.81 -46.87,112.69l0 279.95c0,43.88 17.95,83.77 46.87,112.69 28.92,28.92 68.81,46.87 112.69,46.87l297.16 0c43.88,0 83.77,-17.95 112.69,-46.87 28.92,-28.92 46.87,-68.81 46.87,-112.69l0 -279.95c0,-43.88 -17.95,-83.77 -46.87,-112.69 -28.92,-28.92 -68.81,-46.87 -112.69,-46.87z"/>
  </g>
  <g>
   <polygon class="fil4" points="-0,0 1631.34,0 1631.34,601.96 -0,601.96 "/>
   <path id="_1_2" class="fil1" d="M-0 0l1631.34 0 0 601.96 -1631.34 0 0 -601.96zm1629.89 1.45l-1628.45 0 0 599.07 1628.45 0 0 -599.07z"/>
  </g>
  <g>
   <path class="fil5" d="M1297.17 196.72l223.24 0 0 208.52 -223.24 0 0 -208.52zm221.8 1.45l-220.35 0 0 205.63 220.35 0 0 -205.63z"/>
  </g>
  <g>
   <g style="clip-path:url(#id0)">
    <image x="1297.17" y="196.72" width="223.24" height="208.52" xlink:href="eraser_Images\eraser_ImgID1.png"/>
   </g>
   <path class="fil1" d="M1474.05 198.16l-175.43 0 0 205.63 175.43 0 44.92 0 0 -205.63 -44.92 0zm0 -1.45l-176.88 0 0 208.52 176.88 0 46.36 0 0 -208.52 -46.36 0z"/>
  </g>
 </g>
</svg>
