<?xml version="1.0" encoding="UTF-8"?>
<!DOCTYPE svg PUBLIC "-//W3C//DTD SVG 1.0//EN" "http://www.w3.org/TR/2001/REC-SVG-20010904/DTD/svg10.dtd">
<!-- Creator: CorelDRAW -->
<svg xmlns="http://www.w3.org/2000/svg" xml:space="preserve" width="148.834mm" height="18.9589mm" version="1.0" style="shape-rendering:geometricPrecision; text-rendering:geometricPrecision; image-rendering:optimizeQuality; fill-rule:evenodd; clip-rule:evenodd"
viewBox="0 0 2857.01 363.93"
 xmlns:xlink="http://www.w3.org/1999/xlink"
 xmlns:xodm="http://www.corel.com/coreldraw/odm/2003">
 <defs>
  <style type="text/css">
   <![CDATA[
    .str0 {stroke:#332C2B;stroke-width:1.92;stroke-linejoin:round;stroke-miterlimit:22.9256}
    .fil2 {fill:none}
    .fil1 {fill:#332C2B}
    .fil4 {fill:#F6F7F9}
    .fil5 {fill:#ECEEF1}
    .fil0 {fill:#7789A4}
    .fil3 {fill:#332C2B;fill-rule:nonzero}
    .fil6 {fill:#222222;fill-rule:nonzero}
   ]]>
  </style>
 </defs>
 <g id="圖層_x0020_1">
  <metadata id="CorelCorpID_0Corel-Layer"/>
  <g>
   <path style=fill:currentcolor class="fil0" d="M2562.35 116.27l0 125.1c14.73,7.04 32.75,11.2 52.16,11.2l152.73 0c49.37,0 89.76,-26.88 89.76,-59.74l0 -28.01c0,-32.86 -40.39,-59.74 -89.76,-59.74l-152.73 0c-19.41,0 -37.43,4.16 -52.16,11.2z"/>
   <path id="_1" class="fil1" d="M2564.27 117.48l0 122.68c7.06,3.27 14.89,5.88 23.27,7.67 8.5,1.82 17.57,2.81 26.97,2.81l152.73 0c24.3,0 46.37,-6.6 62.34,-17.23 15.73,-10.47 25.51,-24.85 25.51,-40.6l0 -28.01c0,-15.75 -9.77,-30.12 -25.51,-40.6 -15.97,-10.63 -38.04,-17.23 -62.34,-17.23l-152.73 0c-9.4,0 -18.47,0.99 -26.97,2.81 -8.38,1.8 -16.21,4.41 -23.27,7.67zm-1.92 -1.21l0 125.1c14.73,7.04 32.75,11.2 52.16,11.2l152.73 0c49.37,0 89.76,-26.88 89.76,-59.74l0 -28.01c0,-32.86 -40.39,-59.74 -89.76,-59.74l-152.73 0c-19.41,0 -37.43,4.16 -52.16,11.2z"/>
  </g>
  <polygon class="fil2 str0" points="2433.21,300.42 2433.21,63.51 2609.71,77.12 2609.71,289.29 "/>
  <g>
   <path class="fil1" d="M0 335.11l0 -306.29c0,-15.85 12.97,-28.82 28.82,-28.82l2375.56 0c15.85,0 28.82,12.97 28.82,28.82l0 306.29c0,15.85 -12.97,28.82 -28.82,28.82l-2375.56 0c-15.85,0 -28.82,-12.97 -28.82,-28.82zm1.92 -306.29l0 306.29c0,7.35 2.99,14.04 7.81,18.91 0.03,0.03 0.07,0.06 0.1,0.09 4.87,4.87 11.6,7.9 19,7.9l2375.56 0c7.4,0 14.12,-3.03 19,-7.9 4.87,-4.88 7.9,-11.6 7.9,-19l0 -306.29c0,-7.4 -3.03,-14.12 -7.9,-19l0 -0c-4.88,-4.87 -11.6,-7.9 -19,-7.9l-2375.56 0c-7.4,0 -14.12,3.03 -19,7.9 -4.87,4.87 -7.9,11.6 -7.9,19z"/>
  </g>
  <g id="_2750595984352">
   <g>
    <polygon class="fil3" points="0,181.97 0,181.97 0,181.97 "/>
   </g>
  </g>
  <g id="_2750595984976">
   <g>
    <polygon class="fil3" points="0,181.97 0,181.97 0,181.97 "/>
   </g>
  </g>
  <g>
   <path class="fil3" d="M806.66 219.06c-0.53,0 -0.96,-0.43 -0.96,-0.96 0,-0.53 0.43,-0.96 0.96,-0.96l0 1.92zm1256.21 0l-1256.21 0 0 -1.92 1256.21 0 0 1.92zm0 -1.92c0.53,0 0.96,0.43 0.96,0.96 0,0.53 -0.43,0.96 -0.96,0.96l0 -1.92z"/>
  </g>
  <g>
   <path class="fil3" d="M560.67 126.31c-0.53,0 -0.96,-0.43 -0.96,-0.96 0,-0.53 0.43,-0.96 0.96,-0.96l0 1.92zm1674.41 0l-1674.41 0 0 -1.92 1674.41 0 0 1.92zm0 -1.92c0.53,0 0.96,0.43 0.96,0.96 0,0.53 -0.43,0.96 -0.96,0.96l0 -1.92z"/>
  </g>
  <g>
   <polygon class="fil3" points="2290.79,29.5 2290.79,339.91 2288.87,339.91 2288.87,29.5 "/>
  </g>
  <g>
   <path class="fil4" d="M28.82 363.93l2375.56 0c15.85,0 28.82,-12.97 28.82,-28.82l0 -34.69 0 -236.91 0 -34.69c0,-15.85 -12.97,-28.82 -28.82,-28.82l-2375.56 0c-15.85,0 -28.82,12.97 -28.82,28.82l0 306.29c0,15.85 12.97,28.82 28.82,28.82z"/>
   <path id="_1_0" class="fil1" d="M28.82 362.02l2375.56 0c7.4,0 14.12,-3.03 19,-7.9 4.87,-4.88 7.9,-11.6 7.9,-19l0 -34.69 0 -236.91 0 -34.69c0,-7.4 -3.03,-14.12 -7.9,-19l0 -0c-4.88,-4.87 -11.6,-7.9 -19,-7.9l-2375.56 0c-7.4,0 -14.12,3.03 -19,7.9 -4.87,4.87 -7.9,11.6 -7.9,19l0 306.29c0,7.4 3.03,14.12 7.9,19l0 -0c4.87,4.87 11.6,7.9 19,7.9zm0 1.92l2375.56 0c15.85,0 28.82,-12.97 28.82,-28.82l0 -34.69 0 -236.91 0 -34.69c0,-15.85 -12.97,-28.82 -28.82,-28.82l-2375.56 0c-15.85,0 -28.82,12.97 -28.82,28.82l0 306.29c0,15.85 12.97,28.82 28.82,28.82z"/>
  </g>
  <g>
   <path class="fil5" d="M2433.21 63.51l0 236.91 176.51 -11.13 0 -48.34c0,-22.91 0,-20.3 0,-40.24l0 -32.99c0,0 0,-18.99 0,-51.87l0 -38.74 -176.51 -13.6z"/>
   <path id="_1_1" class="fil1" d="M2435.13 65.59l0 232.8 172.67 -10.89 0 -46.54 0 -40.24 0 -32.99 0 -51.87 0 -36.96 -172.67 -13.31zm-1.92 -2.07l0 236.91 176.51 -11.13 0 -48.34c0,-22.91 0,-20.3 0,-40.24l0 -32.99c0,0 0,-18.99 0,-51.87l0 -38.74 -176.51 -13.6z"/>
  </g>
  <g id="_2750595986272">
   <g>
    <polygon style=fill:currentcolor class="fil6" points="2490.55,296.35 2490.55,68.49 2504.95,68.49 2504.95,296.35 "/>
   </g>
  </g>
  <g id="_2750595987424">
   <path style=fill:currentcolor class="fil1" d="M2013.95 187.95c128.92,-18.1 63.72,-87.9 254.18,-34 26.73,7.57 47.68,5.99 66.63,-14.27 5.5,29.81 -48.91,35.83 -71.93,31.97 -190.02,-31.89 -97.68,24.59 -246.55,54.62 -10.58,0.64 -19.68,-7.42 -20.32,-18 -0.64,-10.58 7.42,-19.68 18,-20.32z"/>
  </g>
  <path style=fill:currentcolor class="fil2" d="M2015.11 207.12c102.05,-6.18 79.38,-95.54 250.36,-44.31 25.18,7.54 65.75,-0.8 69.28,-23.12"/>
 </g>
</svg>
