<?xml version="1.0" encoding="UTF-8"?>
<!DOCTYPE svg PUBLIC "-//W3C//DTD SVG 1.0//EN" "http://www.w3.org/TR/2001/REC-SVG-20010904/DTD/svg10.dtd">
<!-- Creator: CorelDRAW -->
<svg xmlns="http://www.w3.org/2000/svg" xml:space="preserve" width="146.93mm" height="16.5577mm" version="1.0" style="shape-rendering:geometricPrecision; text-rendering:geometricPrecision; image-rendering:optimizeQuality; fill-rule:evenodd; clip-rule:evenodd"
viewBox="0 0 2786.3 313.99"
 xmlns:xlink="http://www.w3.org/1999/xlink"
 xmlns:xodm="http://www.corel.com/coreldraw/odm/2003">
 <defs>
  <style type="text/css">
   <![CDATA[
    .fil5 {fill:none}
    .fil1 {fill:#332C2B}
    .fil2 {fill:#F9FAFB}
    .fil3 {fill:#F8F9FB}
    .fil4 {fill:#F6F8F9}
    .fil0 {fill:#7789A4}
   ]]>
  </style>
 </defs>
 <g id="圖層_x0020_1">
  <metadata id="CorelCorpID_0Corel-Layer"/>
  <g>
   <path style=fill:currentcolor class="fil0" d="M2769.67 138.18l-121.23 -44.28 -8.82 14.15 -9.36 15.02 -4.21 21.93c-1.46,10.54 -2.4,21.64 -0.87,32.22 0.79,5.49 3.25,12.54 4.86,19.16l18.16 30.7 120.88 -40.83c22.68,-7.68 23.08,-39.89 0.6,-48.07z"/>
   <path id="_1" class="fil1" d="M2769.02 139.96l-119.79 -43.76 -8.01 12.85 -9.17 14.72 -4.14 21.55c-0.72,5.21 -1.31,10.54 -1.53,15.85 -0.22,5.3 -0.08,10.61 0.67,15.78 0.48,3.31 1.62,7.32 2.79,11.44 0.67,2.37 1.36,4.79 1.97,7.26l17.24 29.15 119.42 -40.34 0 -0c5.33,-1.81 9.33,-5.07 11.98,-9.05 2.59,-3.89 3.92,-8.46 3.97,-13.05 0.05,-4.58 -1.16,-9.18 -3.66,-13.12 -2.56,-4.03 -6.47,-7.37 -11.73,-9.28zm0.64 -1.78l-121.23 -44.28 -8.82 14.15 -9.36 15.02 -4.21 21.93c-1.46,10.54 -2.4,21.64 -0.87,32.22 0.79,5.49 3.25,12.54 4.86,19.16l18.16 30.7 120.88 -40.83c22.68,-7.68 23.08,-39.89 0.6,-48.07z"/>
  </g>
  <g>
   <path class="fil2" d="M253.38 156.04c0,-16.81 13.65,-30.46 30.46,-30.46 16.81,-0 30.45,13.64 30.46,30.46 -0,16.81 -13.65,30.46 -30.46,30.46 -16.81,0 -30.46,-13.65 -30.46,-30.45zm92.62 106.97l0 -212.04 -18.76 0 -0 43.85c-0,4.67 -3.82,8.48 -8.48,8.48 -4.67,-0 -8.48,-3.81 -8.48,-8.48l0 -43.85 -20.67 0 -0 33.67c-0,4.67 -3.82,8.48 -8.48,8.48 -4.67,0 -8.48,-3.76 -8.48,-8.48l0 -33.67 -17.86 0 -0 43.85c-0,4.67 -3.81,8.48 -8.48,8.48 -4.67,0 -8.48,-3.81 -8.48,-8.48l0 -43.85 -24.79 0 0 212.04c0,0 24.79,-0 24.79,-0l0 -48.72c0,-4.67 3.76,-8.48 8.48,-8.48 4.66,0 8.48,3.76 8.48,8.48l0 48.72c0,0 20.67,0 20.67,0l0.01 -38.54c-0,-4.66 3.81,-8.48 8.48,-8.48 4.66,0 8.48,3.76 8.48,8.48l-0 38.53 17.86 0 0 -48.72c0,-4.67 3.76,-8.48 8.48,-8.48 4.67,0 8.48,3.76 8.48,8.48l0 48.72 18.76 0z"/>
   <path id="_1_0" class="fil1" d="M251.49 156.04c0,-8.92 3.63,-17.02 9.48,-22.87l-0 -0c5.85,-5.85 13.94,-9.48 22.87,-9.48 8.92,0 17.02,3.62 22.87,9.48 5.85,5.85 9.47,13.94 9.47,22.87 -0,8.93 -3.62,17.02 -9.47,22.87 -5.85,5.85 -13.94,9.48 -22.87,9.48 -8.92,0 -17.01,-3.63 -22.86,-9.48l-0.01 0c-5.85,-5.85 -9.48,-13.95 -9.48,-22.87l0.01 0zm1.89 0c0,-16.81 13.65,-30.46 30.46,-30.46 16.81,-0 30.45,13.64 30.46,30.46 -0,16.81 -13.65,30.46 -30.46,30.46 -16.81,0 -30.46,-13.65 -30.46,-30.45zm92.62 106.97l0 -212.04 -18.76 0 -0 43.85c-0,4.67 -3.82,8.48 -8.48,8.48 -4.67,-0 -8.48,-3.81 -8.48,-8.48l0 -43.85 -20.67 0 -0 33.67c-0,4.67 -3.82,8.48 -8.48,8.48 -4.67,0 -8.48,-3.76 -8.48,-8.48l0 -33.67 -17.86 0 -0 43.85c-0,4.67 -3.81,8.48 -8.48,8.48 -4.67,0 -8.48,-3.81 -8.48,-8.48l0 -43.85 -24.79 0 0 212.04c0,0 24.79,-0 24.79,-0l0 -48.72c0,-4.67 3.76,-8.48 8.48,-8.48 4.66,0 8.48,3.76 8.48,8.48l0 48.72c0,0 20.67,0 20.67,0l0.01 -38.54c-0,-4.66 3.81,-8.48 8.48,-8.48 4.66,0 8.48,3.76 8.48,8.48l-0 38.53 17.86 0 0 -48.72c0,-4.67 3.76,-8.48 8.48,-8.48 4.67,0 8.48,3.76 8.48,8.48l0 48.72 18.76 0zm-1.89 -1.89l0 -208.25 -14.99 0 -0 41.96c-0,2.85 -1.17,5.45 -3.04,7.32l0 0.01c-1.88,1.88 -4.48,3.05 -7.33,3.05l0 -0.01c-2.86,-0 -5.46,-1.17 -7.33,-3.04 -1.88,-1.88 -3.04,-4.47 -3.04,-7.33l0.01 0 0 -41.96 -16.9 0 -0 31.78 0.01 0c0,2.85 -1.17,5.44 -3.05,7.33l0 0c-1.87,1.87 -4.47,3.04 -7.33,3.04 -2.85,0 -5.45,-1.15 -7.32,-3.02 -1.88,-1.87 -3.05,-4.47 -3.05,-7.35l0 -31.77 -14.08 0 -0 41.96c-0,2.85 -1.16,5.45 -3.04,7.32l-0 0 -0 0c-1.88,1.88 -4.47,3.04 -7.32,3.04 -2.86,0 -5.45,-1.17 -7.33,-3.05l0 -0c-1.88,-1.88 -3.05,-4.48 -3.05,-7.33l0.01 0 0 -41.96 -21 0 0 208.25 21 -0 0 -46.83 -0.01 0c0,-2.86 1.16,-5.46 3.04,-7.34 1.87,-1.87 4.46,-3.03 7.34,-3.03 2.86,0 5.46,1.16 7.34,3.04 1.87,1.87 3.03,4.46 3.03,7.34l0 46.82 16.88 0 0.01 -36.64 -0.01 0 0 -0c0,-2.85 1.17,-5.45 3.04,-7.32l0.01 0c1.88,-1.87 4.47,-3.04 7.32,-3.04l0 -0.01 0 0c2.85,0 5.45,1.16 7.33,3.04l0.01 0.01c1.87,1.87 3.03,4.46 3.03,7.33l-0.01 0 -0 36.64 14.08 0 0 -46.82c0,-2.86 1.16,-5.47 3.03,-7.34l0.01 0c1.87,-1.87 4.46,-3.03 7.33,-3.03 2.85,0 5.45,1.16 7.33,3.04l0.01 0.01c1.87,1.87 3.03,4.46 3.03,7.33l0 46.83 14.98 0z"/>
  </g>
  <g>
   <path class="fil0" d="M161.96 263.01l0 -212.03 -110.99 0 0 212.03 110.98 0zm-19.92 -149.82c-0,4.67 -3.76,8.48 -8.48,8.48l-53.03 -0c-4.67,0 -8.48,-3.76 -8.48,-8.48 -0,-4.67 3.76,-8.48 8.48,-8.48l53.03 0c4.67,-0 8.48,3.81 8.48,8.48z"/>
   <path id="_1_1" class="fil1" d="M160.07 261.12l0 -208.24 -107.2 0 0 208.24 107.2 0zm1.89 1.9l0 -212.03 -110.99 0 0 212.03 110.98 0zm-19.92 -149.82c-0,4.67 -3.76,8.48 -8.48,8.48l-53.03 -0c-4.67,0 -8.48,-3.76 -8.48,-8.48 -0,-4.67 3.76,-8.48 8.48,-8.48l53.03 0c4.67,-0 8.48,3.81 8.48,8.48zm1.89 0c-0,2.86 -1.16,5.47 -3.03,7.34 -1.87,1.87 -4.46,3.03 -7.34,3.03l0 -0.01 -53.03 -0 0 0.01 -0.01 0c-2.84,0 -5.43,-1.15 -7.31,-3.02 -1.88,-1.87 -3.04,-4.46 -3.05,-7.34l-0.01 0 0 -0.01c0,-2.84 1.15,-5.44 3.02,-7.32 1.87,-1.88 4.47,-3.05 7.35,-3.05l53.03 0 0 -0.01 0 0c2.85,0 5.45,1.17 7.33,3.04 1.87,1.87 3.04,4.47 3.04,7.33l0.01 0 0 0 -0.01 0z"/>
  </g>
  <g>
   <path class="fil0" d="M283.84 142.55c-7.41,0 -13.47,6.04 -13.5,13.45 0,0.02 0,0.03 -0,0.05 0.03,7.45 6.09,13.45 13.5,13.45 7.42,0 13.5,-5.97 13.5,-13.45 -0,-7.47 -6.07,-13.5 -13.5,-13.5z"/>
   <path id="_1_2" class="fil1" d="M283.84 144.44c-3.19,0 -6.09,1.3 -8.18,3.39 -2.1,2.09 -3.41,4.99 -3.42,8.16l0 0.07 -0 0.04c0.03,3.17 1.33,6.04 3.41,8.11 2.1,2.09 5,3.38 8.2,3.38 3.2,0 6.12,-1.29 8.22,-3.38 2.09,-2.08 3.38,-4.96 3.38,-8.17 0,-3.21 -1.3,-6.11 -3.4,-8.2 -2.1,-2.1 -5.01,-3.4 -8.2,-3.4zm0 -1.9c-7.41,0 -13.47,6.04 -13.5,13.45 0,0.02 0,0.03 -0,0.05 0.03,7.45 6.09,13.45 13.5,13.45 7.42,0 13.5,-5.97 13.5,-13.45 -0,-7.47 -6.07,-13.5 -13.5,-13.5z"/>
  </g>
  <g>
   <path class="fil3" d="M161.96 263.01l0 -212.03 -110.99 0 0 212.03 110.98 0zm-19.92 -149.82c-0,4.67 -3.76,8.48 -8.48,8.48l-53.03 -0c-4.67,0 -8.48,-3.76 -8.48,-8.48 -0,-4.67 3.76,-8.48 8.48,-8.48l53.03 0c4.67,-0 8.48,3.81 8.48,8.48z"/>
   <path id="_1_3" class="fil1" d="M160.07 261.12l0 -208.24 -107.2 0 0 208.24 107.2 0zm1.89 1.9l0 -212.03 -110.99 0 0 212.03 110.98 0zm-19.92 -149.82c-0,4.67 -3.76,8.48 -8.48,8.48l-53.03 -0c-4.67,0 -8.48,-3.76 -8.48,-8.48 -0,-4.67 3.76,-8.48 8.48,-8.48l53.03 0c4.67,-0 8.48,3.81 8.48,8.48zm1.89 0c-0,2.86 -1.16,5.47 -3.03,7.34 -1.87,1.87 -4.46,3.03 -7.34,3.03l0 -0.01 -53.03 -0 0 0.01 -0.01 0c-2.84,0 -5.43,-1.15 -7.31,-3.02 -1.88,-1.87 -3.04,-4.46 -3.05,-7.34l-0.01 0 0 -0.01c0,-2.84 1.15,-5.44 3.02,-7.32 1.87,-1.88 4.47,-3.05 7.35,-3.05l53.03 0 0 -0.01 0 0c2.85,0 5.45,1.17 7.33,3.04 1.87,1.87 3.04,4.47 3.04,7.33l0.01 0 0 0 -0.01 0z"/>
  </g>
  <g>
   <path class="fil4" d="M2386.89 0l-2015.4 -0 -346 0c-14.1,0 -25.49,11.39 -25.49,25.49l0 263.01c0,14.1 11.39,25.49 25.49,25.49 457.89,0 1902.17,0 2361.39,0 8.53,0 20.61,-6.35 26.44,-7.52l12.04 -4.12 225.3 -76.11c-8,-10.99 -13.96,-22.12 -17.88,-33.39 -5.51,-15.83 -6.99,-31.94 -4.46,-48.32 2.57,-16.6 9.27,-33.48 20.1,-50.64l-252.82 -92.34c-2.81,-1 -5.77,-1.56 -8.73,-1.56z"/>
   <path id="_1_4" class="fil1" d="M2386.89 3.78l-2015.4 -0 0 0.02 -346 0c-6.01,0 -11.44,2.42 -15.36,6.34l0.01 0.01c-3.92,3.92 -6.35,9.35 -6.35,15.35l-0.02 0 0 263.01 0.02 0c0,6 2.42,11.43 6.35,15.35 3.92,3.92 9.35,6.35 15.35,6.35l2361.39 0c4.79,0 11.33,-2.46 16.82,-4.52 3.24,-1.22 6.16,-2.32 8.54,-2.84l11.91 -4.07 0.02 0 220.5 -74.48c-2.9,-4.27 -5.5,-8.55 -7.8,-12.85 -3.07,-5.74 -5.63,-11.52 -7.65,-17.33 -2.85,-8.2 -4.67,-16.48 -5.44,-24.86 -0.77,-8.36 -0.5,-16.79 0.82,-25.28 2.45,-15.83 8.52,-31.86 18.19,-48.1l-248.44 -90.74 -0 0.01c-1.23,-0.44 -2.48,-0.78 -3.74,-1 -1.23,-0.22 -2.47,-0.33 -3.72,-0.33l0 -0.02zm0 -3.78l-2015.4 -0 -346 0c-14.1,0 -25.49,11.39 -25.49,25.49l0 263.01c0,14.1 11.39,25.49 25.49,25.49 457.89,0 1902.17,0 2361.39,0 8.53,0 20.61,-6.35 26.44,-7.52l12.04 -4.12 225.3 -76.11c-8,-10.99 -13.96,-22.12 -17.88,-33.39 -5.51,-15.83 -6.99,-31.94 -4.46,-48.32 2.57,-16.6 9.27,-33.48 20.1,-50.64l-252.82 -92.34c-2.81,-1 -5.77,-1.56 -8.73,-1.56z"/>
  </g>
  <g id="_2751340802224">
   <path style=fill:currentcolor class="fil1" d="M1947.67 149.51c150.41,-11.97 191.44,-14.29 338.93,23.63l-0.76 -0.07c5.25,0.91 2.67,0.11 7.73,2.5 -2.74,1.58 -4.9,3.36 -8.26,3.06 -140.2,-12.71 -192.91,-10.96 -332.14,8.41 -10.36,1.52 -19.99,-5.65 -21.51,-16.01 -1.52,-10.36 5.65,-19.99 16.01,-21.51z"/>
  </g>
  <path style=fill:currentcolor class="fil5" d="M1950.42 168.27c110.22,-16.14 229.18,-17.38 335.53,7.61l7.61 -0.31"/>
 </g>
</svg>
